<?xml version="1.0"?>
<svg xmlns="http://www.w3.org/2000/svg" viewBox="0 0 64 64" width="512" height="512"><g id="Labor"><path d="M23,20h7a1,1,0,0,0,1-1V17h2v2a1,1,0,0,0,1,1h8a1,1,0,0,0,0-2H35V17a2,2,0,0,0-2-2H31a2,2,0,0,0-2,2v1H23a1,1,0,0,0,0,2Z"/><path d="M54.72,48.1A8.981,8.981,0,0,0,45.76,40H37V36.79a11.032,11.032,0,0,0,5.96-8.92A4,4,0,0,0,46,24a3,3,0,0,0,0-6A13.935,13.935,0,0,0,35.96,4.58,3,3,0,0,0,33,2H31a3,3,0,0,0-2.96,2.58A13.935,13.935,0,0,0,18,18a3,3,0,0,0,0,6,4,4,0,0,0,3.04,3.87A11.032,11.032,0,0,0,27,36.79V40H18.24a8.981,8.981,0,0,0-8.96,8.1L8,60.9a1.036,1.036,0,0,0,.26.77A1,1,0,0,0,9,62H55a1,1,0,0,0,.74-.33A1.036,1.036,0,0,0,56,60.9ZM17,60H10.1l1.17-11.7A6.979,6.979,0,0,1,17,42.11ZM43,25.73V24h1A1.984,1.984,0,0,1,43,25.73Zm-22,0A1.984,1.984,0,0,1,20,24h1ZM18,22a1,1,0,0,1,0-2,1,1,0,0,0,2,0V18a11.942,11.942,0,0,1,5-9.75V11a1,1,0,0,0,2,0V7.09c.33-.15.66-.28,1-.4V13a1,1,0,0,0,2,0V5a1,1,0,0,1,1-1h2a1,1,0,0,1,1,1v8a1,1,0,0,0,2,0V6.69c.34.12.67.25,1,.4V11a1,1,0,0,0,2,0V8.25A11.942,11.942,0,0,1,44,18v2a1,1,0,0,0,2,0,1,1,0,0,1,0,2Zm5,5V24h4a1,1,0,0,0,0,2h1a1,1,0,0,0,0-2h8a1,1,0,0,0,0,2h1a1,1,0,0,0,0-2h4v3a9,9,0,0,1-18,0ZM35,37.57V41a3,3,0,0,1-6,0V37.57a10.68,10.68,0,0,0,6,0ZM23,42h4.1a5,5,0,0,0,9.8,0H41v3a5,5,0,0,1-5,5H28a5,5,0,0,1-5-5ZM41,60H23V56H41Zm4,0H43V55a1,1,0,0,0-1-1H22a1,1,0,0,0-1,1v5H19V42h2v3a7.008,7.008,0,0,0,7,7h8a7.008,7.008,0,0,0,7-7V42h2Zm2,0V42.11a6.979,6.979,0,0,1,5.73,6.19L53.9,60Z"/><path d="M35.536,31.878l.171-.171a1,1,0,0,0-1.414-1.414l-.171.171a3,3,0,0,1-4.244,0l-.171-.171a1,1,0,0,0-1.414,1.414l.171.171a5,5,0,0,0,7.072,0Z"/></g></svg>
